PathFileType	4	(X/Y/Z)	60_1_41_p0_0-419.trc
DataRate	CameraRate	NumFrames	NumMarkers	Units	OrigDataRate	OrigDataStartFrame	OrigNumFrames
46.0	46.0	5	27	m	46.0	315	420
Frame#	Time	RHip			RKnee			RAnkle			RBigToe			RSmallToe			RHeel			LHip			LKnee			LAnkle			LBigToe			LSmallToe			LHeel			Neck			Head			Nose			RShoulder			RElbow			RWrist			RThumb			RIndex			RPinky			LShoulder			LElbow			LWrist			LThumb			LIndex			LPinky			
		X1	Y1	Z1	X2	Y2	Z2	X3	Y3	Z3	X4	Y4	Z4	X5	Y5	Z5	X6	Y6	Z6	X7	Y7	Z7	X8	Y8	Z8	X9	Y9	Z9	X10	Y10	Z10	X11	Y11	Z11	X12	Y12	Z12	X13	Y13	Z13	X14	Y14	Z14	X15	Y15	Z15	X16	Y16	Z16	X17	Y17	Z17	X18	Y18	Z18	X19	Y19	Z19	X20	Y20	Z20	X21	Y21	Z21	X22	Y22	Z22	X23	Y23	Z23	X24	Y24	Z24	X25	Y25	Z25	X26	Y26	Z26	X27	Y27	Z27	
315	6.8478260869565215	0.305374830106698	0.4019343238280764	-0.19939097306396195	0.31761786343019205	0.6074282877433597	0.2474383486709584	0.33288185812288157	0.7455449611960565	0.6300245964236719	0.3064648437456535	0.6394244993535027	0.6975625468660965	0.37291687093488335	0.622918267208345	0.6791864275808015	0.31958796840429665	0.8043024766096343	0.668932887554412	0.09587745586497111	0.4718453154053741	-0.20861626175242215	0.10102425808231172	0.6390095507410722	0.25277440379842053	0.1228193326814842	0.7907786767314002	0.6367885480768941	0.124889480688163	0.5917773525000989	0.6720448635528761	0.06753743195671981	0.6628505919175194	0.6707170071877405	0.1445251030330658	0.8275783119935927	0.6615490583991076	0.198894486555434	0.3071081379016902	-0.7439113856577706	0.16010528265852278	0.17093959576467133	-0.9479132777486644	0.1919753810453499	0.11543361353851492	-0.7994506214468381	0.3635517196437389	0.26672023795903227	-0.663995397322109	0.41838317337347813	0.30903051073909654	-0.40123622198913383	0.3737947219711882	0.26873364536235095	-0.14173702168504895	0.29230996468748693	0.27567831482090877	-0.03741075438664408	0.3064228069916217	0.3081821703790666	0.0011339880090092517	0.3552406096783484	0.32008420644752883	-0.006301093622959442	0.04768726625040697	0.3660006089826967	-0.6623377739506562	-0.0003311030087979674	0.43815467293121285	-0.40971395297010504	-0.021829056644023515	0.48378734414613356	-0.15524192714916416	-0.00938866721351697	0.5221797844401049	-0.04151768370495564	-0.03290343564619683	0.4883854843452654	-0.01756561110972405	-0.02887221712183108	0.4901801775962017	-0.030247651540669
316	6.869565217391305	0.3051045013959972	0.4131223139893785	-0.1999505974903396	0.31759632576451985	0.6073880781071853	0.24779215198230706	0.33289465326152506	0.7457091844924041	0.6299388356015959	0.30641078652150805	0.6395962798599819	0.6977118407894656	0.37283856238267926	0.6231597478548185	0.6793276152981297	0.3195983283664148	0.8047962521945818	0.668689164061789	0.09601875609785125	0.47193811615487463	-0.20825114776478942	0.10102311468344595	0.6389027556008489	0.2528248845525705	0.12382030070895654	0.7894152234897723	0.6327619496695238	0.1249295019924766	0.5920482964625319	0.6721854222839132	0.06746600086963289	0.6631429527225009	0.6709859834545503	0.14479837171474597	0.828880741933128	0.6616725359875957	0.19909718270904128	0.30703577501563695	-0.7438884946245155	0.1601848602492453	0.1712564736888002	-0.9449997230379872	0.19209887562596314	0.11545631289156401	-0.7994321645721996	0.3636747385654412	0.26673581646904887	-0.6638036899969069	0.42168219900330445	0.29556875746326444	-0.3997307551242034	0.37374855817564356	0.2689848636395489	-0.14179799144780675	0.28754218060735687	0.2753315870741009	-0.03418420978644826	0.2983551880188216	0.2944655623594404	-0.0025608280147222952	0.3549497045628887	0.319858535255548	-0.009843244349018086	0.05036761128095034	0.3399307592045252	-0.6570361405757206	-5.2734014057914406e-05	0.438953716830406	-0.40590813271172743	-0.01726719749701973	0.48607215880303223	-0.15503568169596615	-0.0037475051133246473	0.5273106460487806	-0.03809414253276311	-0.01789610795599442	0.5244774369799311	-0.014983155748339572	-0.02293525323626741	0.4997049600897697	-0.02030969714389279
317	6.891304347826087	0.30124631549430475	0.39991221313890013	-0.19906428395591227	0.3176885057888536	0.6072773543207901	0.24747852515155855	0.33297413645786167	0.745380493990343	0.6297630377427661	0.3062575813239916	0.6395169111220499	0.6979783132900014	0.3727239698748726	0.6230598545021194	0.6796044867426311	0.3186318107862881	0.801323924440322	0.6642515216441397	0.09615516472479042	0.47189401793318303	-0.20812720312164693	0.10125333895230922	0.6350060730089506	0.2448327571863136	0.11926471293525368	0.7754844538273573	0.6341758297785254	0.1258146637407838	0.5951414968591396	0.6766119609555122	0.0674382313852076	0.6632852180056431	0.6710510792485507	0.14475282648143326	0.8280190084023934	0.6614501333768871	0.20277005306360743	0.32050983429862534	-0.7434009052229459	0.16034393183188994	0.1710801161369707	-0.9447157415075919	0.19517718691001656	0.12584733172639348	-0.8022355817305225	0.36750939478060957	0.25577526096639625	-0.6576884810877867	0.4286366800230783	0.29456178205865824	-0.3998436006154643	0.3704247219215633	0.2820021671840802	-0.14217427239100305	0.28459305747667146	0.26319191355047894	-0.037810912790416866	0.2905703377412607	0.2964610700859593	-0.0031655549880503704	0.35101759034426094	0.3328698577932008	-0.009433043363743348	0.06006709656547549	0.35082214769340675	-0.659461764296131	0.009544908553591414	0.427895438615001	-0.4047603600123559	-0.013833304591026246	0.5012082565837178	-0.15188988753441907	0.021821498234665525	0.47013098042375834	-0.03920152697015612	-0.00707425591418012	0.5104557149607478	-0.015575183156278967	-0.011063857190549344	0.5215494209670373	-0.020040148326560325
318	6.913043478260869	0.31438532234149463	0.3750672986902161	-0.19040253364014276	0.31773383293242125	0.6075248852067573	0.24806881334258316	0.33310531778595875	0.7454807168509568	0.6336616703139717	0.3060571751713837	0.6395207243266571	0.6984508651236079	0.37248186620964535	0.6228772198463625	0.6799405944992587	0.31853550104958755	0.8013064145132048	0.6643838426104037	0.10382190712008404	0.4713475448269792	-0.2081098090239676	0.10196908943328309	0.6380673658554841	0.2494646717247267	0.1237385433848888	0.7896244680284359	0.6327836324705068	0.12879197731389405	0.6095847386356178	0.6798176758128415	0.06760722006228875	0.6639638581100635	0.6710550880152362	0.14441893991006452	0.8290961247058015	0.6619484160902188	0.21557621924308326	0.31043398280790635	-0.741107405016818	0.16875606867879048	0.16085987276958888	-0.941293792056635	0.19940381709765873	0.12718054274931903	-0.8025869701219649	0.37999815676781484	0.27023344298832747	-0.6572572531050176	0.4356533530631529	0.29424132495893507	-0.39544030157044296	0.3703748229210812	0.2819320482165067	-0.1419324993246188	0.28403932970172674	0.26418986197808086	-0.03459409255563664	0.2939914211801814	0.3078135140626397	-0.002663662267542152	0.35131728804259893	0.3209054876176583	-0.005706633516723434	0.06524204574090345	0.35304520275871354	-0.6601290700662243	0.020463942005992088	0.4457571452086127	-0.40301150369346467	-0.0035638114243270276	0.4914950625104583	-0.1475950700874883	0.035997111113904565	0.4596884357645224	-0.037918683108770924	0.0004210391679673046	0.5089406646046042	-0.013409871607554679	-0.010314892095913682	0.5221352292843404	-0.019619997568020926
319	6.934782608695652	0.3183240365823323	0.38756640896072897	-0.19094739963226226	0.32261634035469	0.6242273755807202	0.25371651358548825	0.33305903448991614	0.7455354689456166	0.63370343501238	0.30621335893430035	0.639602801118079	0.6982212391865955	0.37271404916934586	0.6231994225844409	0.6797178208353003	0.3184528970495259	0.8012947374445482	0.664389690417783	0.10434804126283688	0.47373740935121433	-0.20441470974343157	0.11211648734715275	0.6234436377518181	0.2443716344248339	0.12373837940326007	0.7895536886809145	0.6327354041228438	0.12880015584607518	0.6097344429235739	0.6797140863744181	0.06764521970564663	0.6637942301061402	0.670878629426247	0.14459505268465275	0.8288700099391415	0.6663996420265367	0.21580947953989943	0.310610555582413	-0.741120545651597	0.16888198878786537	0.16143785919452788	-0.9415325527465432	0.2035876959167359	0.11720340559926588	-0.7963094056301873	0.38481870046666167	0.27388401092303194	-0.6545205982632393	0.43284474766638653	0.30792667930081286	-0.3968743265058466	0.3738363317081216	0.26960523643318385	-0.13747083460558	0.28447473445994526	0.2637666699598358	-0.037574612048781715	0.29482778754228217	0.310366743724932	0.0042695718441973785	0.35252856185993275	0.32384265196244977	0.0021039021126079424	0.07211078061192697	0.35196732186857815	-0.6598505486341004	0.026359050553146517	0.4324125482810935	-0.40529734723911687	-0.003399204216318388	0.49135076474697875	-0.1476276156124762	0.04095566355796629	0.44620980703900104	-0.03802805396626811	0.00042279021334631905	0.5089193034407625	-0.013596566006005447	-0.008154755593012626	0.5335241612329664	-0.019029528725618902
